<?xml version="1.0" encoding="iso-8859-1"?>
<!-- Generator: Adobe Illustrator 19.0.0, SVG Export Plug-In . SVG Version: 6.00 Build 0)  -->
<svg version="1.1" id="Capa_1" xmlns="http://www.w3.org/2000/svg" xmlns:xlink="http://www.w3.org/1999/xlink" x="0px" y="0px"
	 viewBox="0 0 512 512" style="enable-background:new 0 0 512 512;" xml:space="preserve">
<g>
	<path style="fill:#A35D45;" d="M350.966,202.314c0,0,10.09,87.827,161.034,144.102l-60.706-104.135l-40.527-37.109L350.966,202.314
		z"/>
	<path style="fill:#A35D45;" d="M248.831,148.586c0,0-86.904,55.455-248.831-39.767L138.884,87.18l91.453,19.126L248.831,148.586z"
		/>
	<path style="fill:#A35D45;" d="M339.973,481.373c-0.899,2.018-2.186,3.911-3.838,5.574c-3.66,3.66-8.449,5.479-13.239,5.479
		c-4.8,0-9.589-1.82-13.239-5.479l-83.876-83.876l26.477-26.477l83.876,83.876C341.782,466.116,343.068,474.492,339.973,481.373z"/>
</g>
<path style="fill:#BA7052;" d="M339.973,481.373c-2.436,1.098-5.051,1.642-7.665,1.642c-4.8,0-9.589-1.82-13.239-5.479
	l-83.876-83.876l17.066-17.066l83.876,83.876C341.782,466.116,343.068,474.492,339.973,481.373z"/>
<circle style="fill:#75706B;" cx="163.202" cy="314.014" r="108.826"/>
<path style="fill:#BA7052;" d="M451.297,242.286l-60.745,1.51l-11.938-12.519l-27.647-28.967l-102.137-53.725L138.883,87.179
	c0,0,45.846-110.501,205.86-48.957l33.254,15.948l25.576,12.279C545.604,150.205,451.297,242.286,451.297,242.286z"/>
<path style="fill:#A35D45;" d="M451.297,242.286l-60.745,1.51l-11.938-12.519c1.538-4.185,4.408-8.975,8.848-14.426
	c50.357-61.972,6.216-139.211-9.467-162.68l25.576,12.279C545.604,150.205,451.297,242.286,451.297,242.286z"/>
<path style="fill:#CC8269;" d="M248.831,148.586l102.136,53.728l57.534-148.608c2.598-6.71-0.416-14.287-6.913-17.38l-29.614-14.095
	c-5.576-2.654-12.237-1.265-16.288,3.396L248.831,148.586z"/>
<circle style="fill:#C4DEE8;" cx="163.202" cy="314.014" r="81.209"/>
<path style="fill:#E1F3F9;" d="M105.779,256.593c-4.274,4.274-7.953,8.916-11.075,13.808
	c31.416-20.044,73.598-16.365,101.039,11.075s31.118,69.623,11.075,101.039c4.894-3.122,9.535-6.8,13.808-11.075
	c31.714-31.714,31.714-83.133,0-114.847C188.912,224.878,137.493,224.878,105.779,256.593z"/>
<g>
</g>
<g>
</g>
<g>
</g>
<g>
</g>
<g>
</g>
<g>
</g>
<g>
</g>
<g>
</g>
<g>
</g>
<g>
</g>
<g>
</g>
<g>
</g>
<g>
</g>
<g>
</g>
<g>
</g>
</svg>
